<svg xmlns="http://www.w3.org/2000/svg" xmlns:xlink="http://www.w3.org/1999/xlink" width="11cm" height="11cm" viewBox="0 0 1000 1000" version="1.1">
  <title>Bridge</title>
  <desc>SunsetBridge</desc>
  <rect width="1000" height="1000"
    style="fill: rgb(0, 0, 0); stroke-width: 10; stroke: rgb(75, 75, 75)" />
  <rect x="20" y="20" width="960" height="960"
    style="fill: rgb(200, 14, 15);" />
  <path d="M 0 460
    C 400 150 600 150 1000 460"
    style="stroke: black; stroke-width: 10; fill: none;" />
  <circle cx="500" cy="500" r="150" stroke="#ff9933"
    stroke-width="5" fill="#ff6600"/>
  <rect x="0" y="460" width="1000" height="80"
    style="fill: black;" />
  <path d="M 0 1000
    C 95 300 155 300 250 1000
    C 345 300 405 300 500 1000
    C 595 300 655 300 750 1000
    C 845 300 905 300 1000 1000"
    style="stroke: black; stroke-width: 10; fill: none;" />
  <path d="M 0 500
    L 100 550
    L 200 625
    L 250 750
    L 305 825
    L 320 900
    L 350 960
    L 400 1000
    L 0 1000"
    style="stroke: black; stroke-width: 10;" />
  <path d="M 1000 500
    L 900 550
    L 800 625
    L 750 750
    L 695 825
    L 680 900
    L 650 960
    L 600 1000
    L 1000 1000"
    style="stroke: black:" />
</svg>
